<mxfile host="Electron" modified="2024-04-05T03:28:16.425Z" agent="Mozilla/5.0 (Windows NT 10.0; Win64; x64) AppleWebKit/537.36 (KHTML, like Gecko) draw.io/24.1.0 Chrome/120.0.6099.109 Electron/28.1.0 Safari/537.36" etag="95au_o-tFgbzwx_IL5-N" version="24.1.0" type="device">
  <diagram name="Page-1" id="GAg8haRcpsVNe8hPWDVm">
    <mxGraphModel dx="1878" dy="846" grid="1" gridSize="10" guides="1" tooltips="1" connect="1" arrows="1" fold="1" page="0" pageScale="1" pageWidth="1920" pageHeight="1200" math="0" shadow="0">
      <root>
        <mxCell id="0" />
        <mxCell id="1" parent="0" />
        <mxCell id="3JFMlEUNZGDiNWC0OtGJ-4" value="" style="rounded=0;whiteSpace=wrap;html=1;fillColor=#3D3D3D;strokeColor=#858585;connectable=0;allowArrows=0;expand=0;movable=0;resizable=0;rotatable=0;cloneable=0;deletable=0;container=1;imageAspect=1;opacity=50;" parent="1" vertex="1">
          <mxGeometry width="1920" height="1200" as="geometry" />
        </mxCell>
        <mxCell id="RJW7VMsSMWp2yGj4S-rq-4" value="" style="rounded=0;whiteSpace=wrap;html=1;fillColor=#4d4d4d;strokeColor=#858585;fillStyle=dots;" vertex="1" parent="3JFMlEUNZGDiNWC0OtGJ-4">
          <mxGeometry width="1920" height="1200" as="geometry" />
        </mxCell>
        <mxCell id="RJW7VMsSMWp2yGj4S-rq-11" value="&lt;font color=&quot;#8a8a8a&quot; style=&quot;font-size: 80px;&quot;&gt;PRATA OCEANI&lt;/font&gt;" style="text;html=1;align=center;verticalAlign=middle;whiteSpace=wrap;rounded=0;pointerEvents=0;allowArrows=0;connectable=0;expand=0;fontSize=80;" vertex="1" parent="3JFMlEUNZGDiNWC0OtGJ-4">
          <mxGeometry x="660" y="600" width="600" height="30" as="geometry" />
        </mxCell>
        <mxCell id="RJW7VMsSMWp2yGj4S-rq-12" value="&lt;font color=&quot;#8a8a8a&quot;&gt;&lt;b&gt;WELCOME TO&lt;/b&gt;&lt;/font&gt;" style="text;html=1;align=center;verticalAlign=middle;whiteSpace=wrap;rounded=0;pointerEvents=0;allowArrows=0;connectable=0;expand=0;fontSize=20;" vertex="1" parent="3JFMlEUNZGDiNWC0OtGJ-4">
          <mxGeometry x="830" y="540" width="260" height="30" as="geometry" />
        </mxCell>
        <mxCell id="RJW7VMsSMWp2yGj4S-rq-13" value="" style="rounded=0;whiteSpace=wrap;html=1;fillColor=#3D3D3D;strokeColor=#858585;" vertex="1" parent="3JFMlEUNZGDiNWC0OtGJ-4">
          <mxGeometry x="959" y="60" width="2" height="200" as="geometry" />
        </mxCell>
        <mxCell id="RJW7VMsSMWp2yGj4S-rq-14" value="" style="rounded=0;whiteSpace=wrap;html=1;fillColor=#3D3D3D;strokeColor=#858585;rotation=-90;" vertex="1" parent="3JFMlEUNZGDiNWC0OtGJ-4">
          <mxGeometry x="957" y="-295" width="2" height="910" as="geometry" />
        </mxCell>
        <mxCell id="RJW7VMsSMWp2yGj4S-rq-9" value="" style="rounded=1;whiteSpace=wrap;html=1;fillColor=#3D3D3D;strokeColor=#858585;arcSize=50;aspect=fixed;" vertex="1" parent="3JFMlEUNZGDiNWC0OtGJ-4">
          <mxGeometry x="890" y="90" width="140" height="140" as="geometry" />
        </mxCell>
        <mxCell id="RJW7VMsSMWp2yGj4S-rq-15" value="&lt;font color=&quot;#8a8a8a&quot; style=&quot;font-size: 25px;&quot;&gt;&lt;span style=&quot;font-size: 25px;&quot;&gt;LINK&lt;/span&gt;&lt;/font&gt;" style="text;html=1;align=center;verticalAlign=middle;whiteSpace=wrap;rounded=0;pointerEvents=0;allowArrows=0;connectable=0;expand=0;fontSize=25;" vertex="1" parent="3JFMlEUNZGDiNWC0OtGJ-4">
          <mxGeometry x="540" y="125" width="60" height="30" as="geometry" />
        </mxCell>
        <mxCell id="RJW7VMsSMWp2yGj4S-rq-16" value="&lt;font color=&quot;#8a8a8a&quot; style=&quot;font-size: 25px;&quot;&gt;&lt;span style=&quot;font-size: 25px;&quot;&gt;LINK&lt;/span&gt;&lt;/font&gt;" style="text;html=1;align=center;verticalAlign=middle;whiteSpace=wrap;rounded=0;pointerEvents=0;allowArrows=0;connectable=0;expand=0;fontSize=25;" vertex="1" parent="3JFMlEUNZGDiNWC0OtGJ-4">
          <mxGeometry x="710" y="125" width="60" height="30" as="geometry" />
        </mxCell>
        <mxCell id="RJW7VMsSMWp2yGj4S-rq-31" value="&lt;font color=&quot;#8a8a8a&quot; style=&quot;font-size: 25px;&quot;&gt;&lt;span style=&quot;font-size: 25px;&quot;&gt;LINK&lt;/span&gt;&lt;/font&gt;" style="text;html=1;align=center;verticalAlign=middle;whiteSpace=wrap;rounded=0;pointerEvents=0;allowArrows=0;connectable=0;expand=0;fontSize=25;" vertex="1" parent="3JFMlEUNZGDiNWC0OtGJ-4">
          <mxGeometry x="1150" y="125" width="60" height="30" as="geometry" />
        </mxCell>
        <mxCell id="RJW7VMsSMWp2yGj4S-rq-32" value="&lt;font color=&quot;#8a8a8a&quot; style=&quot;font-size: 25px;&quot;&gt;&lt;span style=&quot;font-size: 25px;&quot;&gt;LINK&lt;/span&gt;&lt;/font&gt;" style="text;html=1;align=center;verticalAlign=middle;whiteSpace=wrap;rounded=0;pointerEvents=0;allowArrows=0;connectable=0;expand=0;fontSize=25;" vertex="1" parent="3JFMlEUNZGDiNWC0OtGJ-4">
          <mxGeometry x="1310" y="125" width="60" height="30" as="geometry" />
        </mxCell>
        <mxCell id="3JFMlEUNZGDiNWC0OtGJ-5" value="" style="rounded=0;whiteSpace=wrap;html=1;fillColor=#3D3D3D;strokeColor=#858585;opacity=50;connectable=0;allowArrows=0;expand=0;movable=0;rotatable=0;cloneable=0;deletable=0;" parent="1" vertex="1">
          <mxGeometry y="1200" width="1920" height="2530" as="geometry" />
        </mxCell>
        <mxCell id="RJW7VMsSMWp2yGj4S-rq-6" value="" style="rounded=0;whiteSpace=wrap;html=1;fillColor=#616161;strokeColor=#858585;fillStyle=dots;" vertex="1" parent="1">
          <mxGeometry x="130" y="1310" width="800" height="590" as="geometry" />
        </mxCell>
        <mxCell id="RJW7VMsSMWp2yGj4S-rq-7" value="&lt;h1 style=&quot;margin-top: 0px;&quot;&gt;&lt;font size=&quot;1&quot; style=&quot;&quot; color=&quot;#8a8a8a&quot;&gt;&lt;span style=&quot;font-weight: 400; font-size: 48px;&quot;&gt;HISTORY&lt;/span&gt;&lt;/font&gt;&lt;/h1&gt;&lt;h1 style=&quot;margin-top: 0px; line-height: 90%;&quot;&gt;&lt;font color=&quot;#8a8a8a&quot;&gt;&lt;span style=&quot;font-size: 21px; font-weight: 400;&quot;&gt;Commodo viverra maecenas accumsan lacus vel. Orci nulla pellentesque dignissim enim sit amet venenatis urna cursus. Netus et malesuada fames ac turpis egestas. Et sollicitudin ac orci phasellus egestas tellus rutrum tellus pellentesque. Lacus vel facilisis volutpat est velit egestas. Bibendum arcu vitae elementum curabitur vitae nunc.&amp;nbsp;&lt;/span&gt;&lt;/font&gt;&lt;br&gt;&lt;/h1&gt;" style="text;html=1;whiteSpace=wrap;overflow=hidden;rounded=0;fontSize=20;" vertex="1" parent="1">
          <mxGeometry x="1040" y="1310" width="690" height="350" as="geometry" />
        </mxCell>
        <mxCell id="RJW7VMsSMWp2yGj4S-rq-10" value="" style="rounded=0;whiteSpace=wrap;html=1;fillColor=#3D3D3D;strokeColor=#858585;" vertex="1" parent="1">
          <mxGeometry y="2000" width="1920" height="830" as="geometry" />
        </mxCell>
        <mxCell id="RJW7VMsSMWp2yGj4S-rq-18" value="" style="rounded=1;whiteSpace=wrap;html=1;fillColor=#4d4d4d;strokeColor=#858585;arcSize=50;aspect=fixed;fillStyle=dots;" vertex="1" parent="1">
          <mxGeometry x="100" y="2260" width="440" height="440" as="geometry" />
        </mxCell>
        <mxCell id="RJW7VMsSMWp2yGj4S-rq-19" value="" style="rounded=1;whiteSpace=wrap;html=1;fillColor=#4d4d4d;strokeColor=#858585;arcSize=50;aspect=fixed;fillStyle=dots;" vertex="1" parent="1">
          <mxGeometry x="600" y="2080" width="400" height="400" as="geometry" />
        </mxCell>
        <mxCell id="RJW7VMsSMWp2yGj4S-rq-20" value="" style="rounded=1;whiteSpace=wrap;html=1;fillColor=#4d4d4d;strokeColor=#858585;arcSize=50;aspect=fixed;fillStyle=dots;" vertex="1" parent="1">
          <mxGeometry x="1000" y="2420" width="290" height="290" as="geometry" />
        </mxCell>
        <mxCell id="RJW7VMsSMWp2yGj4S-rq-21" value="" style="rounded=1;whiteSpace=wrap;html=1;fillColor=#3D3D3D;strokeColor=#858585;arcSize=50;aspect=fixed;" vertex="1" parent="1">
          <mxGeometry x="1350" y="2100" width="480" height="480" as="geometry" />
        </mxCell>
        <mxCell id="RJW7VMsSMWp2yGj4S-rq-22" value="&lt;font color=&quot;#8a8a8a&quot; style=&quot;font-size: 50px;&quot;&gt;MAIN ATTRACTIONS&lt;/font&gt;" style="text;html=1;align=left;verticalAlign=middle;whiteSpace=wrap;rounded=0;pointerEvents=0;allowArrows=0;connectable=0;expand=0;fontSize=50;" vertex="1" parent="1">
          <mxGeometry x="130" y="2120" width="60" height="30" as="geometry" />
        </mxCell>
        <mxCell id="RJW7VMsSMWp2yGj4S-rq-23" value="" style="rounded=1;whiteSpace=wrap;html=1;fillColor=#4d4d4d;strokeColor=#858585;arcSize=50;aspect=fixed;fillStyle=dots;" vertex="1" parent="1">
          <mxGeometry x="650" y="2560" width="160" height="160" as="geometry" />
        </mxCell>
        <mxCell id="RJW7VMsSMWp2yGj4S-rq-24" value="" style="rounded=1;whiteSpace=wrap;html=1;fillColor=#3D3D3D;strokeColor=#858585;arcSize=50;aspect=fixed;" vertex="1" parent="1">
          <mxGeometry x="1100" y="2160" width="160" height="160" as="geometry" />
        </mxCell>
        <mxCell id="RJW7VMsSMWp2yGj4S-rq-26" value="&lt;font color=&quot;#8a8a8a&quot; style=&quot;font-size: 50px;&quot;&gt;SEE MORE&lt;/font&gt;" style="text;html=1;align=right;verticalAlign=middle;whiteSpace=wrap;rounded=0;pointerEvents=0;allowArrows=0;connectable=0;expand=0;fontSize=50;" vertex="1" parent="1">
          <mxGeometry x="1740" y="2670" width="60" height="30" as="geometry" />
        </mxCell>
        <mxCell id="RJW7VMsSMWp2yGj4S-rq-27" value="&lt;font style=&quot;font-size: 50px;&quot; color=&quot;#8a8a8a&quot;&gt;UPCOMING EVENTS&lt;/font&gt;" style="text;html=1;align=right;verticalAlign=middle;whiteSpace=wrap;rounded=0;pointerEvents=0;allowArrows=0;connectable=0;expand=0;fontSize=50;" vertex="1" parent="1">
          <mxGeometry x="120" y="2970" width="500" height="30" as="geometry" />
        </mxCell>
        <mxCell id="RJW7VMsSMWp2yGj4S-rq-28" value="" style="rounded=0;whiteSpace=wrap;html=1;fillColor=#4d4d4d;strokeColor=#858585;aspect=fixed;fillStyle=dots;" vertex="1" parent="1">
          <mxGeometry x="930" y="2970" width="330" height="330" as="geometry" />
        </mxCell>
        <mxCell id="RJW7VMsSMWp2yGj4S-rq-29" value="" style="rounded=0;whiteSpace=wrap;html=1;fillColor=#4d4d4d;strokeColor=#858585;aspect=fixed;fillStyle=dots;" vertex="1" parent="1">
          <mxGeometry x="1440" y="2970" width="340" height="340" as="geometry" />
        </mxCell>
        <mxCell id="RJW7VMsSMWp2yGj4S-rq-30" value="" style="rounded=0;whiteSpace=wrap;html=1;fillColor=#4d4d4d;strokeColor=#858585;aspect=fixed;fillStyle=dots;" vertex="1" parent="1">
          <mxGeometry x="940" y="3450" width="380" height="380" as="geometry" />
        </mxCell>
      </root>
    </mxGraphModel>
  </diagram>
</mxfile>
